<svg width="40" height="40" viewBox="0 0 40 40" fill="none" xmlns="http://www.w3.org/2000/svg">
<path d="M19.9999 26.6667C23.6818 26.6667 26.6666 23.6819 26.6666 20C26.6666 16.3181 23.6818 13.3333 19.9999 13.3333C16.318 13.3333 13.3333 16.3181 13.3333 20C13.3333 23.6819 16.318 26.6667 19.9999 26.6667Z" stroke="#F9F6F6" stroke-width="2" stroke-linecap="round" stroke-linejoin="round"/>
<path d="M26.6666 13.3333V21.6667C26.6666 22.9927 27.1934 24.2645 28.1311 25.2022C29.0688 26.1399 30.3405 26.6667 31.6666 26.6667C32.9927 26.6667 34.2645 26.1399 35.2021 25.2022C36.1398 24.2645 36.6666 22.9927 36.6666 21.6667V20C36.6664 16.2384 35.3936 12.5875 33.0554 9.64088C30.7171 6.69431 27.4509 4.62537 23.7877 3.77049C20.1245 2.91561 16.2798 3.32507 12.8788 4.93228C9.47787 6.53949 6.7206 9.24992 5.05536 12.6229C3.39013 15.9958 2.91488 19.8329 3.70688 23.5102C4.49888 27.1875 6.51156 30.4887 9.41765 32.8771C12.3237 35.2655 15.9523 36.6006 19.7134 36.6653C23.4744 36.7299 27.1468 35.5204 30.1333 33.2333" stroke="#F9F6F6" stroke-width="2" stroke-linecap="round" stroke-linejoin="round"/>
</svg>
