<svg width="40" height="40" viewBox="0 0 40 40" fill="none" xmlns="http://www.w3.org/2000/svg">
<path d="M14.9999 36.6666C15.9204 36.6666 16.6666 35.9204 16.6666 34.9999C16.6666 34.0794 15.9204 33.3333 14.9999 33.3333C14.0794 33.3333 13.3333 34.0794 13.3333 34.9999C13.3333 35.9204 14.0794 36.6666 14.9999 36.6666Z" stroke="black" stroke-width="2" stroke-linecap="round" stroke-linejoin="round"/>
<path d="M33.3334 36.6666C34.2539 36.6666 35.0001 35.9204 35.0001 34.9999C35.0001 34.0794 34.2539 33.3333 33.3334 33.3333C32.4129 33.3333 31.6667 34.0794 31.6667 34.9999C31.6667 35.9204 32.4129 36.6666 33.3334 36.6666Z" stroke="black" stroke-width="2" stroke-linecap="round" stroke-linejoin="round"/>
<path d="M1.66675 1.66675H8.33342L12.8001 23.9834C12.9525 24.7507 13.3699 25.44 13.9793 25.9306C14.5887 26.4211 15.3512 26.6817 16.1334 26.6667H32.3334C33.1156 26.6817 33.8781 26.4211 34.4875 25.9306C35.0969 25.44 35.5143 24.7507 35.6667 23.9834L38.3334 10.0001H10.0001" stroke="black" stroke-width="2" stroke-linecap="round" stroke-linejoin="round"/>
</svg>
