<svg width="61" height="61" viewBox="0 0 61 61" fill="none" xmlns="http://www.w3.org/2000/svg">
<path d="M40.6667 5.08333V20.3333H55.9167" stroke="#F9F6F6" stroke-width="2" stroke-linecap="round" stroke-linejoin="round"/>
<path d="M58.4584 2.54167L40.6667 20.3333" stroke="#F9F6F6" stroke-width="2" stroke-linecap="round" stroke-linejoin="round"/>
<path d="M55.9166 43.005V50.63C55.9195 51.3379 55.7745 52.0385 55.4909 52.6871C55.2074 53.3357 54.7914 53.9179 54.2698 54.3964C53.7482 54.8749 53.1324 55.2393 52.4619 55.466C51.7913 55.6928 51.0808 55.777 50.3758 55.7133C42.5547 54.8635 35.0419 52.1909 28.4412 47.9104C22.3001 44.0081 17.0935 38.8015 13.1912 32.6604C8.89575 26.0297 6.22259 18.4804 5.38831 10.6242C5.32479 9.92131 5.40832 9.21293 5.63358 8.54413C5.85883 7.87532 6.22088 7.26075 6.69667 6.73953C7.17246 6.21832 7.75156 5.80188 8.39711 5.51674C9.04266 5.2316 9.7405 5.084 10.4462 5.08333H18.0712C19.3047 5.07119 20.5005 5.50799 21.4358 6.31231C22.371 7.11663 22.9819 8.23359 23.1546 9.455C23.4764 11.8952 24.0732 14.2911 24.9337 16.5971C25.2757 17.5068 25.3497 18.4955 25.147 19.446C24.9443 20.3965 24.4733 21.2689 23.79 21.96L20.5621 25.1879C24.1803 31.5511 29.4489 36.8197 35.8121 40.4379L39.04 37.21C39.731 36.5266 40.6035 36.0557 41.554 35.853C42.5045 35.6503 43.4932 35.7243 44.4029 36.0662C46.7089 36.9267 49.1048 37.5236 51.545 37.8454C52.7796 38.0196 53.9072 38.6415 54.7132 39.5928C55.5193 40.5441 55.9476 41.7585 55.9166 43.005Z" stroke="#F9F6F6" stroke-width="2" stroke-linecap="round" stroke-linejoin="round"/>
</svg>
