<svg width="40" height="40" viewBox="0 0 40 40" fill="none" xmlns="http://www.w3.org/2000/svg">
<path d="M38.3333 5.00001C36.7373 6.1258 34.9701 6.98685 33.1 7.55001C32.0962 6.39586 30.7622 5.57783 29.2784 5.20655C27.7945 4.83527 26.2325 4.92866 24.8034 5.47409C23.3744 6.01952 22.1474 6.99067 21.2883 8.2562C20.4292 9.52173 19.9795 11.0206 20 12.55V14.2167C17.071 14.2926 14.1688 13.643 11.5516 12.3257C8.93453 11.0085 6.68382 9.0644 4.99996 6.66667C4.99996 6.66667 -1.66671 21.6667 13.3333 28.3333C9.90084 30.6633 5.81189 31.8316 1.66663 31.6667C16.6666 40 35 31.6667 35 12.5C34.9984 12.0358 34.9538 11.5727 34.8666 11.1167C36.5676 9.43916 37.768 7.32119 38.3333 5.00001V5.00001Z" stroke="#FCF7F7" stroke-width="2" stroke-linecap="round" stroke-linejoin="round"/>
</svg>
